<?xml version="1.0" encoding="utf-8"?><svg xmlns="http://www.w3.org/2000/svg" xmlns:xlink="http://www.w3.org/1999/xlink"><symbol viewBox="0 0 451.847 451.847" id="bottom" xmlns="http://www.w3.org/2000/svg"><path d="M225.923 354.706c-8.098 0-16.195-3.092-22.369-9.263L9.27 151.157c-12.359-12.359-12.359-32.397 0-44.751 12.354-12.354 32.388-12.354 44.748 0l171.905 171.915 171.906-171.909c12.359-12.354 32.391-12.354 44.744 0 12.365 12.354 12.365 32.392 0 44.751L248.292 345.449c-6.177 6.172-14.274 9.257-22.369 9.257z"/></symbol><symbol viewBox="0 0 13 15" id="lock" xmlns="http://www.w3.org/2000/svg"><rect y="5.714" width="12.143" height="9.286" rx="3"/><path d="M3.143 3.929a2.929 2.929 0 115.857 0v2.928H3.143V3.93z"/></symbol><symbol viewBox="0 0 268.832 268.832" id="next" xmlns="http://www.w3.org/2000/svg"><path d="M265.171 125.577l-80-80c-4.881-4.881-12.797-4.881-17.678 0-4.882 4.882-4.882 12.796 0 17.678l58.661 58.661H12.5c-6.903 0-12.5 5.597-12.5 12.5 0 6.902 5.597 12.5 12.5 12.5h213.654l-58.659 58.661c-4.882 4.882-4.882 12.796 0 17.678 2.44 2.439 5.64 3.661 8.839 3.661s6.398-1.222 8.839-3.661l79.998-80c4.882-4.882 4.882-12.796 0-17.678z"/></symbol></svg>